<svg id="OBJECTS" xmlns="http://www.w3.org/2000/svg" viewBox="0 0 147.68 178.3"><defs><style>.cls-1{fill:#ffac9d;}.cls-2{fill:#cc887f;}.cls-3{fill:#7aa8ce;}.cls-4{fill:#6f96bd;}.cls-5{fill:#ffa65b;}.cls-6{fill:#d68950;}.cls-7{fill:#fff;}.cls-8,.cls-9{fill:#352c38;}.cls-9{opacity:0.3;}.cls-10{fill:#965450;}.cls-11{fill:#76413b;}</style></defs><path class="cls-1" d="M311.23,379.4c-8.48-4.63-6.17-27-6.17-27l-12.7.82v-.82l-1.36.41-1.36-.41v.82l-12.7-.82s2.31,22.36-6.17,27-58.6,6.94-53.21,58.6H364.44C369.83,386.34,319.71,384,311.23,379.4Z" transform="translate(-217.16 -259.7)"></path><path class="cls-2" d="M275.16,373.63q15.21-2.26,30.42-4.68a67.69,67.69,0,0,1-.52-16.54l-12.7.82v-.82l-1.36.41-1.36-.41v.82l-12.7-.82S278.28,365.4,275.16,373.63Z" transform="translate(-217.16 -259.7)"></path><path class="cls-3" d="M319.27,382c-7.53,4.4-17.56,7.09-28.58,7.09s-20.87-2.64-28.38-7c-16.79,4.53-49.14,13.9-44.75,55.92H364.44C368.86,395.62,335.93,386.45,319.27,382Z" transform="translate(-217.16 -259.7)"></path><path class="cls-4" d="M353.87,399.7c-6.75,3.24-14.2,4.34-21.59,6.63q-15.67,4.88-31.46,9.39c-21.08,6-42.26,11.72-63.44,17.41L219.26,438H364.44C366.32,419.93,361.41,407.91,353.87,399.7Z" transform="translate(-217.16 -259.7)"></path><path class="cls-5" d="M256.4,383.76C239,389,213.65,400.5,217.56,438h59.85Z" transform="translate(-217.16 -259.7)"></path><path class="cls-5" d="M325.18,383.63,315.63,438h48.81C368.39,400.2,342.62,388.83,325.18,383.63Z" transform="translate(-217.16 -259.7)"></path><path class="cls-6" d="M272.15,438h5.26l-21-54.24A85.54,85.54,0,0,0,242,389.39Z" transform="translate(-217.16 -259.7)"></path><path class="cls-6" d="M325.18,383.63,315.63,438H320l25.17-45.59A76.17,76.17,0,0,0,325.18,383.63Z" transform="translate(-217.16 -259.7)"></path><path class="cls-2" d="M266.16,319.67c-2.5-7.75-8.41-5.95-9-5.77s-6.7,1-5.64,9.06,5.78,12.53,10.2,11.23C266.3,333.47,268.68,327.47,266.16,319.67Z" transform="translate(-217.16 -259.7)"></path><path class="cls-2" d="M316.06,319.67c2.5-7.75,8.42-5.95,9-5.77s6.69,1,5.64,9.06-5.78,12.53-10.2,11.23C315.93,333.47,313.55,327.47,316.06,319.67Z" transform="translate(-217.16 -259.7)"></path><path class="cls-1" d="M260.1,307.93c3.1-34,28.94-32.09,31.37-31.83,2.44-.26,28.28-2.16,31.38,31.83,3.12,34.19-12.11,56.52-31.38,55.29C272.21,364.45,257,342.12,260.1,307.93Z" transform="translate(-217.16 -259.7)"></path><path class="cls-2" d="M295.93,323.92a16.81,16.81,0,0,1,1.05,2.4c.3.82.55,1.64.77,2.47.12.41.2.83.3,1.25s.18.83.26,1.25c.17.84.29,1.69.38,2.55l0,.4-.21.19q-1,1-2.13,1.86c-.74.59-1.47,1.19-2.26,1.73.51-.8,1.09-1.56,1.65-2.31s1.17-1.48,1.78-2.2l-.17.6c-.26-.82-.49-1.65-.67-2.48-.1-.42-.2-.84-.27-1.26s-.17-.84-.23-1.26c-.13-.85-.23-1.7-.29-2.57A19.09,19.09,0,0,1,295.93,323.92Z" transform="translate(-217.16 -259.7)"></path><path class="cls-7" d="M304.65,344.13c-6.15,6-16.57,5.65-24.47.32" transform="translate(-217.16 -259.7)"></path><path class="cls-8" d="M315.84,312.4l-.74-.41-.82-.46-1-.55c-.4-.17-.79-.4-1.24-.57l-.66-.3-.7-.25c-.46-.21-1-.28-1.44-.45a10.65,10.65,0,0,0-1.47-.22l-.74-.06c-.24,0-.49,0-.73.05a8.4,8.4,0,0,0-1.42.22c-.48.08-.9.31-1.35.42l-.32.11-.3.15-.59.27a9.34,9.34,0,0,0-1,.52c-.3.19-.58.34-.82.47-.46.25-.76.38-.76.38s.12-.28.38-.76c.13-.24.29-.53.5-.85a4.57,4.57,0,0,1,.82-1,5.91,5.91,0,0,1,1.15-1.06,8.81,8.81,0,0,1,1.54-.91c.29-.12.6-.22.91-.33a3.61,3.61,0,0,1,1-.23c.34,0,.68-.1,1-.13l1,.05a8.59,8.59,0,0,1,2,.4c.31.11.61.25.9.37a4.33,4.33,0,0,1,.83.43c.26.16.52.31.76.47l.66.53a10.19,10.19,0,0,1,1.1,1.06,10.5,10.5,0,0,1,1.31,1.85A4.48,4.48,0,0,1,315.84,312.4Z" transform="translate(-217.16 -259.7)"></path><path class="cls-8" d="M283.66,312.4l-.75-.41-.82-.46-1-.55c-.4-.17-.79-.4-1.24-.57l-.66-.3-.7-.25c-.46-.21-1-.28-1.44-.45a10.65,10.65,0,0,0-1.47-.22l-.74-.06c-.24,0-.48,0-.73.05a8.4,8.4,0,0,0-1.42.22c-.48.08-.9.31-1.35.42l-.32.11-.3.15-.59.27a9.34,9.34,0,0,0-1.05.52c-.3.19-.58.34-.82.47-.46.25-.76.38-.76.38s.12-.28.38-.76c.13-.24.29-.53.5-.85a4.88,4.88,0,0,1,.82-1,6.21,6.21,0,0,1,1.15-1.06,9.19,9.19,0,0,1,1.54-.91c.3-.12.6-.22.91-.33a3.61,3.61,0,0,1,1-.23c.34,0,.68-.1,1-.13l1,.05a8.61,8.61,0,0,1,2,.4c.31.11.61.25.9.37a4.33,4.33,0,0,1,.83.43c.26.16.52.31.76.47l.66.53a10.19,10.19,0,0,1,1.1,1.06,10,10,0,0,1,1.31,1.85A5.22,5.22,0,0,1,283.66,312.4Z" transform="translate(-217.16 -259.7)"></path><path class="cls-8" d="M282.63,324.71s-.07-.27-.22-.73a11.28,11.28,0,0,0-.79-1.83,6.21,6.21,0,0,0-1.67-2,3.87,3.87,0,0,0-1.26-.65,2.46,2.46,0,0,0-.71-.17,3,3,0,0,0-.74-.06c-.24,0-.54,0-.73,0a5.61,5.61,0,0,0-.79.14,3.85,3.85,0,0,0-1.21.58,4,4,0,0,0-.93,1,7,7,0,0,0-.58,1.12,10.29,10.29,0,0,0-.52,1.9,7.48,7.48,0,0,0-.11.76,4.61,4.61,0,0,1-.13-.77,7.19,7.19,0,0,1,.11-2.09,5.39,5.39,0,0,1,.46-1.37,4.42,4.42,0,0,1,1-1.33,4.25,4.25,0,0,1,1.64-.88,8,8,0,0,1,.84-.18,6.17,6.17,0,0,1,.94,0,4,4,0,0,1,.92.09,4,4,0,0,1,.9.24,3.46,3.46,0,0,1,.82.4,4.18,4.18,0,0,1,.72.53,5.92,5.92,0,0,1,1.63,2.57,7.79,7.79,0,0,1,.39,2.05A5.92,5.92,0,0,1,282.63,324.71Z" transform="translate(-217.16 -259.7)"></path><path class="cls-8" d="M311.56,324.25s-.07-.28-.23-.74a11.87,11.87,0,0,0-.78-1.83,6.25,6.25,0,0,0-1.68-2,4,4,0,0,0-1.25-.65,2.83,2.83,0,0,0-.71-.17,3.74,3.74,0,0,0-.75-.06,5.45,5.45,0,0,0-.72,0,5.36,5.36,0,0,0-.79.14,3.43,3.43,0,0,0-1.22.58,4,4,0,0,0-.92.95,7.47,7.47,0,0,0-.58,1.12,9.55,9.55,0,0,0-.52,1.9,7.41,7.41,0,0,0-.11.77,4.92,4.92,0,0,1-.13-.78,6.8,6.8,0,0,1,.1-2.09,5.87,5.87,0,0,1,.47-1.37,4.23,4.23,0,0,1,1-1.32,4.15,4.15,0,0,1,1.63-.89,5.81,5.81,0,0,1,.85-.17,6.18,6.18,0,0,1,.94-.05,4.12,4.12,0,0,1,.92.1,3.45,3.45,0,0,1,.89.24,3.15,3.15,0,0,1,.83.39,4.23,4.23,0,0,1,.71.53,5.83,5.83,0,0,1,1.64,2.58,7.32,7.32,0,0,1,.38,2A5.38,5.38,0,0,1,311.56,324.25Z" transform="translate(-217.16 -259.7)"></path><path class="cls-9" d="M245,313a18,18,0,0,0,4.59-4.9,14.51,14.51,0,0,0,.8-1.79c.15-.64.36-1.29.47-2s.18-1.35.21-2.05,0-1.41,0-2.14-.12-1.38-.17-2.09l-.05-.53a1.31,1.31,0,0,1,0-.2v-.26c0-.34,0-.69.05-1.05a38.23,38.23,0,0,1,.5-4.31,22.15,22.15,0,0,1,1.15-4.24c.15-.33.27-.68.45-1a6.87,6.87,0,0,1,.51-.9l.26-.41.39-.44.19-.23.05,0h0l.08-.07.43-.4a15,15,0,0,1,2.45-1.71c0-.74,0-1.48,0-2.22a17.56,17.56,0,0,0-3.77,2.51l-.43.41-.11.1-.1.1-.07.08-.19.23-.39.45-.38.58a7.74,7.74,0,0,0-.63,1.15,8.27,8.27,0,0,0-.49,1.15,23.25,23.25,0,0,0-1.16,4.63,35.26,35.26,0,0,0-.4,4.52c0,.37,0,.74,0,1.11v.29s0,.32,0,.33l.06.53c.09.71.17,1.4.25,2.09.16,2.62,0,5.23-1,7.26a18.81,18.81,0,0,1-4.08,4.89,18.37,18.37,0,0,0-3.24,4,11.82,11.82,0,0,0-.86,1.7,8.65,8.65,0,0,0-.48,1.3l-.35,1.11.45-1.07a15,15,0,0,1,1.57-2.83A17.64,17.64,0,0,1,245,313Z" transform="translate(-217.16 -259.7)"></path><path class="cls-10" d="M309,278.72s11.33.34,15,14.34-.34,16.66-.34,28c0,0,0,7-1.66,9.33l-2.34-23S304,299.06,309,278.72Z" transform="translate(-217.16 -259.7)"></path><path class="cls-11" d="M288.58,260a18.17,18.17,0,0,0-6.07,0,12.89,12.89,0,0,0-4.23,1.55,14.42,14.42,0,0,0-3.56,3.06c-2.06,2.38-3.62,5.11-5.49,7.55a18.62,18.62,0,0,1-6.9,5.85c-.7.35-1.36.58-2.15.89a23.76,23.76,0,0,0-2.28,1,18.33,18.33,0,0,0-4.25,2.76l-.43.41-.11.1-.1.1,0,0-.05,0-.19.23-.39.45-.38.58a7.74,7.74,0,0,0-.63,1.15,8.27,8.27,0,0,0-.49,1.15,23.25,23.25,0,0,0-1.16,4.63,35.26,35.26,0,0,0-.4,4.52c0,.37,0,.74,0,1.11v.29s0,.32,0,.33l.06.53c.09.71.17,1.4.25,2.09.16,2.62,0,5.23-1,7.26a18.81,18.81,0,0,1-4.08,4.89,18.37,18.37,0,0,0-3.24,4,11.82,11.82,0,0,0-.86,1.7,8.65,8.65,0,0,0-.48,1.3l-.35,1.11.45-1.07a15,15,0,0,1,1.57-2.83A17.64,17.64,0,0,1,245,313a18,18,0,0,0,4.59-4.9,14.51,14.51,0,0,0,.8-1.79c.15-.64.36-1.29.47-2s.18-1.35.21-2.05,0-1.41,0-2.14-.12-1.38-.17-2.09l-.05-.53a1.31,1.31,0,0,1,0-.2v-.26c0-.34,0-.69.05-1.05a38.23,38.23,0,0,1,.5-4.31,22.15,22.15,0,0,1,1.15-4.24c.15-.33.27-.68.45-1a6.87,6.87,0,0,1,.51-.9l.26-.41.39-.44.19-.23.05,0h0l.08-.07.43-.4a15.64,15.64,0,0,1,2.81-1.92c-.46.3-.9.6-1.3.92-.21.15-.41.32-.62.5l-.23.19q-.41.38-.78.78c-3.62,3.88-3.19,13.66-3.15,13.92,2.67,15.33-6.66,12.33-9.66,23.33s11.84,18.14,8.33,22c-6.67,7.34-10-2.33-10-2.33-1.33,5.67,4.67,14,12,13,6.94-.95,14.47-6.38,11.87-17.7l0,.06.78,1.85c.23.59.51,1.16.71,1.76l.54,1.8.36,1.84c0,.61.13,1.23.13,1.85a12.7,12.7,0,0,1-.14,1.85,8.54,8.54,0,0,1-.41,1.8,10.82,10.82,0,0,1-.68,1.74,12.24,12.24,0,0,1-2.21,3.06,14.14,14.14,0,0,1-3,2.39,17.89,17.89,0,0,1-3.58,1.64,17.37,17.37,0,0,0,3.82-1.17A14.75,14.75,0,0,0,264,355a12.91,12.91,0,0,0,2.71-3.12,10.6,10.6,0,0,0,.95-1.87,11,11,0,0,0,.62-2,14.63,14.63,0,0,0,.31-2.09c.05-.7,0-1.4,0-2.11s-.17-1.38-.27-2.08-.33-1.35-.5-2-.45-1.31-.67-2l-.66-1.84c-.11-.31-.23-.63-.32-.93l-.19-.85a7.46,7.46,0,0,1-.23-1.67,4.26,4.26,0,0,1,1-2.84c.67-.86,1.7-1.7,2.68-2.73a17.6,17.6,0,0,0,1.4-1.65,13,13,0,0,0,1.13-1.9l.48-1,.35-1c.1-.35.23-.69.31-1l.2-1.06.19-1.06.07-1.05.13-2,.11-2a13,13,0,0,1,.15-1.93,25.8,25.8,0,0,1,.66-3.66,15.43,15.43,0,0,1,.5-1.8l.61-1.65.6-.87.75-.86c.29-.24.56-.5.85-.74s.62-.42.95-.61.68-.34,1-.49l1.11-.36,1.17-.25c.4-.06.81-.09,1.21-.14l2.67-.29,1.32-.15c.44-.07.91-.2,1.36-.29.91-.23,1.84-.37,2.71-.67l2.6-.93.34-.17a20.55,20.55,0,0,0,16-14.48C312.29,274.66,303.73,261,288.58,260ZM269.34,322a11.71,11.71,0,0,1-2,2.91c-.8.93-1.83,1.78-2.76,3a6.38,6.38,0,0,0-.63,1,4.57,4.57,0,0,0-.47,1.14l-.18.6-.07.61a6,6,0,0,0,0,1.19c0,.15,0,.31.05.47-1.82-7.74,3.23-7.29,6.61-12.13l-.12.38Z" transform="translate(-217.16 -259.7)"></path><path class="cls-9" d="M266.12,307.3a40.52,40.52,0,0,1-8.7-25,11.37,11.37,0,0,0-.95.66c-.21.15-.41.32-.62.5l-.23.19q-.41.38-.78.78c-3.62,3.88-3.19,13.66-3.15,13.92,2.67,15.33-6.66,12.33-9.66,23.33s11.84,18.14,8.33,22c-6.67,7.34-10-2.33-10-2.33-1.33,5.67,4.67,14,12,13,6.94-.95,14.47-6.38,11.87-17.7l0,.06.78,1.85c.23.59.51,1.16.71,1.76l.54,1.8.36,1.84c0,.61.13,1.23.13,1.85a12.7,12.7,0,0,1-.14,1.85,8.54,8.54,0,0,1-.41,1.8,10.82,10.82,0,0,1-.68,1.74,12.24,12.24,0,0,1-2.21,3.06,14.14,14.14,0,0,1-3,2.39,17.89,17.89,0,0,1-3.58,1.64,17.37,17.37,0,0,0,3.82-1.17A14.75,14.75,0,0,0,264,355a12.91,12.91,0,0,0,2.71-3.12,10.6,10.6,0,0,0,.95-1.87,11,11,0,0,0,.62-2,14.63,14.63,0,0,0,.31-2.09c.05-.7,0-1.4,0-2.11s-.17-1.38-.27-2.08-.33-1.35-.5-2-.45-1.31-.67-2l-.66-1.84c-.11-.31-.23-.63-.32-.93l-.19-.85a7.46,7.46,0,0,1-.23-1.67,4.26,4.26,0,0,1,1-2.84c.67-.86,1.7-1.7,2.68-2.73a17.6,17.6,0,0,0,1.4-1.65,13,13,0,0,0,1.13-1.9l.48-1,.35-1c.1-.35.23-.69.31-1l.2-1.06.19-1.06.07-1.05.12-2A53.4,53.4,0,0,1,266.12,307.3Zm3.59,13.94-.37.79a11.71,11.71,0,0,1-2,2.91c-.8.93-1.83,1.78-2.76,3a6.38,6.38,0,0,0-.63,1,4.57,4.57,0,0,0-.47,1.14l-.18.6-.07.61a6,6,0,0,0,0,1.19c0,.15,0,.31.05.47-1.82-7.74,3.23-7.29,6.61-12.13Z" transform="translate(-217.16 -259.7)"></path></svg>