<svg id="OBJECTS" xmlns="http://www.w3.org/2000/svg" viewBox="0 0 154.38 174.81"><defs><style>.cls-1{fill:#76413b;}.cls-2{fill:#965450;}.cls-3{fill:#ffac9d;}.cls-4{fill:#cc887f;}.cls-5{fill:#5d8584;}.cls-6{fill:#78a8a5;}.cls-7{fill:#352c38;}.cls-8{fill:#fff;}</style></defs><path class="cls-1" d="M107,135.72s-15.34,9.67-7,24.34,66,10.66,36.33-24.34C111.85,106.81,107,135.72,107,135.72Z" transform="translate(-43.99 -36.2)"></path><path class="cls-1" d="M163.15,98.39s-6.67,8-5.34,16c1.92,11.51-15.66,26.67-33.66,21.67s1.33-38.67,1.33-38.67Z" transform="translate(-43.99 -36.2)"></path><path class="cls-1" d="M79,98.39s6.66,8,5.33,16C82.44,125.9,100,141.06,118,136.06s-1.34-38.67-1.34-38.67Z" transform="translate(-43.99 -36.2)"></path><path class="cls-2" d="M124.77,123.57a50.73,50.73,0,0,0,24-5.18,25.51,25.51,0,0,0,9-7.91c.76-6.5,5.4-12.09,5.4-12.09l-37.67-1s-8.2,14.28-8.94,25.62A79.19,79.19,0,0,0,124.77,123.57Z" transform="translate(-43.99 -36.2)"></path><path class="cls-2" d="M84.51,113a90.32,90.32,0,0,0,40.26,10.58h.89c-.5-11.42-9-26.17-9-26.17L79,98.39S84.93,105.48,84.51,113Z" transform="translate(-43.99 -36.2)"></path><path class="cls-3" d="M141.23,152.4c-8.48-4.63-6.17-27-6.17-27l-12.7.82v-.82l-1.36.41-1.36-.41v.82l-12.7-.82s2.31,22.36-6.17,27S40.16,159.34,45.56,211H196.44C201.84,159.34,149.71,157,141.23,152.4Z" transform="translate(-43.99 -36.2)"></path><path class="cls-4" d="M105.16,146.63q15.21-2.26,30.42-4.68a67.69,67.69,0,0,1-.52-16.54l-12.7.82v-.82l-1.36.41-1.36-.41v.82l-12.7-.82S108.28,138.4,105.16,146.63Z" transform="translate(-43.99 -36.2)"></path><path class="cls-5" d="M158.48,156.38c-7.42,6.73-18.38,11.39-30.89,12.59l-6.74,24.26-3.56-24.06c-13.56-.79-25.49-5.61-33.41-12.79C66.26,162,40.53,174.26,44.37,211H198C201.83,174.26,176.1,162,158.48,156.38Z" transform="translate(-43.99 -36.2)"></path><path class="cls-6" d="M118.2,175.34l-.91-6.17c-13.56-.79-25.49-5.61-33.41-12.79a90.93,90.93,0,0,0-9.35,3.54C80.78,168.41,97.78,174.66,118.2,175.34Z" transform="translate(-43.99 -36.2)"></path><path class="cls-6" d="M168.86,160.39a86.32,86.32,0,0,0-10.38-4c-7.42,6.73-18.38,11.39-30.89,12.59l-1.76,6.36C145.74,174.62,162.37,168.6,168.86,160.39Z" transform="translate(-43.99 -36.2)"></path><path class="cls-6" d="M119.33,199.09a2.8,2.8,0,1,0,2.8-2.8A2.8,2.8,0,0,0,119.33,199.09Z" transform="translate(-43.99 -36.2)"></path><path class="cls-4" d="M96.16,92.67c-2.5-7.75-8.41-6-9-5.77s-6.7,1-5.64,9.06,5.78,12.53,10.2,11.23C96.3,106.47,98.68,100.47,96.16,92.67Z" transform="translate(-43.99 -36.2)"></path><path class="cls-4" d="M146.06,92.67c2.5-7.75,8.42-6,9-5.77s6.69,1,5.64,9.06-5.78,12.53-10.2,11.23C145.93,106.47,143.55,100.47,146.06,92.67Z" transform="translate(-43.99 -36.2)"></path><path class="cls-3" d="M90.1,80.93c3.1-34,28.94-32.09,31.37-31.83,2.44-.26,28.28-2.16,31.38,31.83,3.12,34.19-12.11,56.52-31.38,55.29C102.21,137.45,87,115.12,90.1,80.93Z" transform="translate(-43.99 -36.2)"></path><path class="cls-2" d="M89,87.39s-1.67,44.67,24.66,49.67,42.67-17,40.34-52l-3.34-.34s-2.16,35.34-10.16,35.67,3.83-11-11.5-11.67-22.93-5.78-24.17,7.17c-.83,8.67-11.5-6.17-12.83-29.17S89,87.39,89,87.39Z" transform="translate(-43.99 -36.2)"></path><path class="cls-1" d="M93.29,97A80.33,80.33,0,0,1,92,86.72c-1.34-23-3,.67-3,.67a90.42,90.42,0,0,0,.52,11.53Z" transform="translate(-43.99 -36.2)"></path><path class="cls-1" d="M154.06,97.28a94.14,94.14,0,0,0,0-12.22l-3.34-.34s-.29,4.84-1.07,11Z" transform="translate(-43.99 -36.2)"></path><path class="cls-4" d="M125.93,84.91c.43,1.56.76,3.13,1.06,4.71s.55,3.15.77,4.74c.12.79.2,1.58.3,2.37s.19,1.59.26,2.39c.17,1.59.29,3.18.38,4.78l0,.43-.31.19c-1,.63-2.06,1.23-3.1,1.82s-2.1,1.17-3.19,1.68c.88-.83,1.8-1.6,2.72-2.37s1.86-1.5,2.81-2.23l-.28.62c-.26-1.58-.49-3.16-.68-4.74-.1-.8-.19-1.59-.26-2.39s-.17-1.58-.23-2.38c-.13-1.6-.23-3.19-.29-4.79S125.85,86.53,125.93,84.91Z" transform="translate(-43.99 -36.2)"></path><path class="cls-7" d="M145.84,82.39,145.1,82l-.82-.45L143.23,81c-.4-.17-.79-.4-1.24-.57l-.66-.3-.7-.25c-.46-.21-1-.28-1.44-.45a10.65,10.65,0,0,0-1.47-.22l-.74-.06c-.24,0-.49,0-.73.05a8.4,8.4,0,0,0-1.42.22c-.48.08-.9.3-1.35.42l-.32.1-.3.15-.59.28a9.34,9.34,0,0,0-1.05.52,9.26,9.26,0,0,1-.82.46c-.46.26-.76.39-.76.39A8.35,8.35,0,0,1,130,81c.13-.24.29-.53.5-.85a4.57,4.57,0,0,1,.82-1,5.91,5.91,0,0,1,1.15-1.06,8.81,8.81,0,0,1,1.54-.91c.29-.12.6-.23.91-.33a3.27,3.27,0,0,1,1-.23c.34,0,.68-.1,1-.13s.68,0,1,0a8.59,8.59,0,0,1,2,.4c.31.11.61.24.9.37a4.33,4.33,0,0,1,.83.43c.26.16.52.31.76.47l.66.53a10.19,10.19,0,0,1,1.1,1.06,10.5,10.5,0,0,1,1.31,1.85A4.63,4.63,0,0,1,145.84,82.39Z" transform="translate(-43.99 -36.2)"></path><path class="cls-7" d="M113.66,82.39l-.75-.41-.82-.45L111,81c-.4-.17-.79-.4-1.24-.57l-.66-.3-.7-.25c-.46-.21-1-.28-1.44-.45a10.65,10.65,0,0,0-1.47-.22l-.74-.06c-.24,0-.48,0-.73.05a8.4,8.4,0,0,0-1.42.22c-.48.08-.9.3-1.35.42l-.32.1-.3.15-.59.28a9.34,9.34,0,0,0-1,.52,9.26,9.26,0,0,1-.82.46c-.46.26-.76.39-.76.39a8.35,8.35,0,0,1,.38-.76c.13-.24.29-.53.5-.85a4.88,4.88,0,0,1,.82-1,6.21,6.21,0,0,1,1.15-1.06,9.19,9.19,0,0,1,1.54-.91c.3-.12.6-.23.91-.33a3.27,3.27,0,0,1,1-.23c.34,0,.68-.1,1-.13s.68,0,1,0a8.61,8.61,0,0,1,2,.4c.31.11.61.24.9.37a4.33,4.33,0,0,1,.83.43c.26.16.52.31.76.47l.66.53a10.19,10.19,0,0,1,1.1,1.06,10,10,0,0,1,1.31,1.85A5.46,5.46,0,0,1,113.66,82.39Z" transform="translate(-43.99 -36.2)"></path><path class="cls-7" d="M112.63,94.71s-.07-.27-.22-.74a11.62,11.62,0,0,0-.79-1.82,6.11,6.11,0,0,0-1.67-2,3.87,3.87,0,0,0-1.26-.65,2.46,2.46,0,0,0-.71-.17,2.62,2.62,0,0,0-.74-.06c-.24,0-.54,0-.73,0a5.61,5.61,0,0,0-.79.14,3.65,3.65,0,0,0-1.21.58,4,4,0,0,0-.93,1A6.93,6.93,0,0,0,103,92a10.57,10.57,0,0,0-.52,1.91,7.48,7.48,0,0,0-.11.76,4.61,4.61,0,0,1-.13-.77,7.19,7.19,0,0,1,.11-2.09,5.26,5.26,0,0,1,.46-1.37,4.3,4.3,0,0,1,1-1.33,4.25,4.25,0,0,1,1.64-.88,6.07,6.07,0,0,1,.84-.18,7.91,7.91,0,0,1,.94,0,4.71,4.71,0,0,1,.92.1,3.52,3.52,0,0,1,.9.24,3.12,3.12,0,0,1,.82.4,4.18,4.18,0,0,1,.72.53,5.81,5.81,0,0,1,1.63,2.57,7.79,7.79,0,0,1,.39,2.05A5.92,5.92,0,0,1,112.63,94.71Z" transform="translate(-43.99 -36.2)"></path><path class="cls-7" d="M141.56,94.24s-.07-.27-.23-.73a11.47,11.47,0,0,0-.78-1.83,6.25,6.25,0,0,0-1.68-2,4,4,0,0,0-1.25-.65,2.83,2.83,0,0,0-.71-.17,3.74,3.74,0,0,0-.75-.06c-.24,0-.54,0-.72,0a5.29,5.29,0,0,0-.79.15,3.58,3.58,0,0,0-1.22.57,4.19,4.19,0,0,0-.92,1,7,7,0,0,0-.58,1.12,9.55,9.55,0,0,0-.52,1.9,7.48,7.48,0,0,0-.11.76,4.61,4.61,0,0,1-.13-.77,6.8,6.8,0,0,1,.1-2.09,5.87,5.87,0,0,1,.47-1.37,4.12,4.12,0,0,1,1-1.32,4,4,0,0,1,1.63-.89,5.81,5.81,0,0,1,.85-.17,5.12,5.12,0,0,1,.94,0,4.1,4.1,0,0,1,.92.09,3.9,3.9,0,0,1,.89.24,3.53,3.53,0,0,1,.83.4,4.23,4.23,0,0,1,.71.53,5.85,5.85,0,0,1,1.64,2.57,7.44,7.44,0,0,1,.38,2A5.21,5.21,0,0,1,141.56,94.24Z" transform="translate(-43.99 -36.2)"></path><path class="cls-8" d="M134.65,114.13c-6.15,6-16.57,5.65-24.47.32" transform="translate(-43.99 -36.2)"></path><path class="cls-1" d="M121.94,54.06s-18.67-3.34-21.67,8.33,1.33,27.33-12.33,25c0,0-9.91,2-3.58,17.67,0,0-18.76-18-7.76-31,9-10.61,5.34-33.67,27.34-37.34S121.94,49.72,121.94,54.06Z" transform="translate(-43.99 -36.2)"></path><path class="cls-2" d="M121.94,54.06s-18.67-3.34-21.67,8.33,1.33,27.33-12.33,25c0,0-9.91,2-3.58,17.67,0,0-18.76-18-7.76-31,9-10.61,5.34-33.67,27.34-37.34S121.94,49.72,121.94,54.06Z" transform="translate(-43.99 -36.2)"></path><path class="cls-2" d="M120.24,54.06s18.66-3.34,21.66,8.33-1.33,27.33,12.34,25c0,0,9.91,2,3.57,17.67,0,0,18.76-18,7.76-31-9-10.61-5.33-33.67-27.33-37.34S120.24,49.72,120.24,54.06Z" transform="translate(-43.99 -36.2)"></path><path class="cls-2" d="M119.93,51.3c1.31,0,2.54,0,3.8.12s2.51.25,3.75.46a27.63,27.63,0,0,1,7.32,2.24,14.23,14.23,0,0,1,6.06,5.06,11.32,11.32,0,0,1,1.5,3.76,25.47,25.47,0,0,1,.44,3.8c.14,2.5.06,5,0,7.4a67,67,0,0,0,0,7.22,15,15,0,0,0,.58,3.44,6.63,6.63,0,0,0,1.64,2.87,6.22,6.22,0,0,0,3,1.53,12.94,12.94,0,0,0,3.53.25h0a10.36,10.36,0,0,1,2.17.59,7.77,7.77,0,0,1,1.94,1.1A4.42,4.42,0,0,1,157.35,95a4.25,4.25,0,0,0-2-3.59,7,7,0,0,0-1.9-.88,9.26,9.26,0,0,0-2.06-.4h.06a13.94,13.94,0,0,1-3.76,0,7.26,7.26,0,0,1-3.55-1.58A7.69,7.69,0,0,1,142,85.23a17.49,17.49,0,0,1-.83-3.72,68.43,68.43,0,0,1-.3-7.4c0-2.44,0-4.85-.24-7.22a23.47,23.47,0,0,0-.51-3.45,8.8,8.8,0,0,0-1.29-2.94,12.19,12.19,0,0,0-5.14-4A26.54,26.54,0,0,0,127,54.54c-1.15-.19-2.33-.33-3.5-.42S121.15,54,120,54Z" transform="translate(-43.99 -36.2)"></path></svg>