<?xml version="1.0" encoding="UTF-8"?><svg id="Calque_1" xmlns="http://www.w3.org/2000/svg" viewBox="0 0 708.66 708.66"><defs><style>.cls-1{fill:#fff;}.cls-2{fill:#164194;}.cls-3{fill:#e62336;}</style></defs><path class="cls-1" d="M0,708.66H708.66V0H0V708.66Z"/><path class="cls-2" d="M671.36,331.98V37.3H37.3V351.64L476.19,149.72c-39.45,101.99,33.96,236.01,195.17,182.25Z"/><g><path class="cls-3" d="M57.86,671.91h46.31v-138.92h20.38v-46.31H37.48v46.31h20.38v138.92Z"/><path class="cls-3" d="M134.68,671.91h46.31v-185.23h-46.31v185.23Z"/><path class="cls-3" d="M406.95,575.59l-46.31-88.91h-46.31v185.23h46.31v-88.91l46.31,88.91h46.31v-185.23h-46.31v88.91Z"/><path class="cls-3" d="M463.84,486.68v185.23h92.62v-46.31h-46.31v-22.23h46.31v-46.31h-46.31v-24.08h46.31v-46.31h-92.62Z"/><path class="cls-3" d="M192.46,532.98v92.62c0,46.31,46.31,46.31,46.31,46.31h64.83s0-46.31,0-46.31v-46.31h-46.31v46.31h-9.26s-9.26,0-9.26-9.26v-74.09c0-9.26,9.26-9.26,9.26-9.26h40.75s14.82,0,14.82-14.82v-31.49h-64.83s-46.31,0-46.31,46.31Z"/><path class="cls-3" d="M643.58,568.18s-18.49-12.95-24.08-16.67c-5.56-3.7-5.56-9.26-5.56-9.26,0,1.39-1.85-9.26,11.11-9.26h24.08c14.82,0,14.82-14.82,14.82-14.82v-31.49h-40.75c-37.05,0-55.57,24.08-55.57,53.71,0,20.38,11.8,35.95,19.37,42.09,11.47,9.08,32.49,24.59,32.49,24.59,3.39,2.81,5.56,3.4,5.56,9.26s-3.7,9.26-9.26,9.26h-48.16v46.31h53.72c48.16,0,50.01-51.86,50.01-55.57,0-14.82,0-29.64-27.78-48.16Z"/></g></svg>